<svg width="20" height="20" viewBox="0 0 20 20" fill="none" xmlns="http://www.w3.org/2000/svg">
<path d="M15.0013 10.8346H5.0013C4.5013 10.8346 4.16797 10.5013 4.16797 10.0013C4.16797 9.5013 4.5013 9.16797 5.0013 9.16797H15.0013C15.5013 9.16797 15.8346 9.5013 15.8346 10.0013C15.8346 10.5013 15.5013 10.8346 15.0013 10.8346Z" fill="#0070C1"/>
<path d="M12.5013 15.8346H7.5013C7.0013 15.8346 6.66797 15.5013 6.66797 15.0013C6.66797 14.5013 7.0013 14.168 7.5013 14.168H12.5013C13.0013 14.168 13.3346 14.5013 13.3346 15.0013C13.3346 15.5013 13.0013 15.8346 12.5013 15.8346Z" fill="#0070C1"/>
<path d="M17.5013 5.83464H2.5013C2.0013 5.83464 1.66797 5.5013 1.66797 5.0013C1.66797 4.5013 2.0013 4.16797 2.5013 4.16797H17.5013C18.0013 4.16797 18.3346 4.5013 18.3346 5.0013C18.3346 5.5013 18.0013 5.83464 17.5013 5.83464Z" fill="#0070C1"/>
</svg>
