<svg width="20" height="20" viewBox="0 0 20 20" fill="none" xmlns="http://www.w3.org/2000/svg">
<rect width="20" height="20" rx="10" fill="#114FF0"/>
<path fill-rule="evenodd" clip-rule="evenodd" d="M10 0C4.47715 0 0 4.47715 0 10C0 15.5228 4.47715 20 10 20C15.5228 20 20 15.5228 20 10C20 4.47715 15.5228 0 10 0ZM9.45607 14.3901C9.60033 14.5343 9.79599 14.6154 10 14.6154C10.204 14.6154 10.3997 14.5343 10.5439 14.3901L13.6209 11.3132C13.9213 11.0128 13.9213 10.5257 13.6209 10.2253C13.3204 9.9249 12.8334 9.9249 12.533 10.2253L10.7692 11.9891L10.7692 6.15385C10.7692 5.72901 10.4248 5.38462 10 5.38462C9.57517 5.38462 9.23077 5.72901 9.23077 6.15385L9.23077 11.9891L7.46701 10.2253C7.1666 9.9249 6.67955 9.9249 6.37915 10.2253C6.07875 10.5257 6.07875 11.0128 6.37915 11.3132L9.45607 14.3901Z" fill="#BEC6EC"/>
</svg>
