<svg width="702" height="1060" viewBox="0 0 702 1060" fill="none" xmlns="http://www.w3.org/2000/svg">
<g clip-path="url(#clip0_2094_318)">
<rect width="702" height="1060" rx="20" fill="#114FF0"/>
<g clip-path="url(#clip1_2094_318)">
<path d="M0 1059.9V0H700.923V8.54466C700.923 357.264 700.949 705.984 701 1054.7C701 1059.27 700.166 1060 697.355 1060C464.911 1059.89 232.459 1059.86 0 1059.9Z" fill="#376BF2"/>
<path d="M475.093 0C484.998 8.22117 494.903 16.4425 504.807 24.664C617.654 118.559 715.773 225.663 795.528 349.178C818.162 384.231 838.818 420.393 853.886 459.468C864.258 486.367 871.116 513.946 869.643 543.108C867.361 588.259 839.126 623.656 798.57 633.473C775.345 639.094 752.787 635.81 730.726 627.713C702.321 617.29 676.507 601.832 650.978 585.933C567.927 534.206 488.441 477.319 410.252 418.601C318.596 349.766 228.515 278.938 140.998 204.884C70.2258 144.997 2.43194 82.0351 -58.402 11.8829C-61.8283 7.93165 -65.2436 3.97068 -68.6479 0H475.093Z" fill="#114FF0"/>
<path d="M-20 1062.19C1.571 975.954 33.0594 893.152 66.9968 811.208C87.2497 762.306 107.937 713.586 132.159 666.475C147.674 636.298 165.042 607.298 188.578 582.504C213.41 556.345 242.553 537.675 278.784 531.824C311.417 526.554 342.151 532.975 371.445 547.56C400.303 561.928 424.951 582.059 448.168 604.06C492.917 646.465 532.098 693.808 570.068 742.199C624.893 812.068 671.823 887.185 716.906 963.519C730.287 986.175 743.562 1008.89 756.732 1031.67C762.244 1041.18 766.898 1051.06 768.131 1062.19L-20 1062.19Z" fill="#114FF0"/>
<path d="M-156 283.617C-128.543 310.584 -93.161 321.915 -57.8842 333.581C-38.996 339.827 -19.9844 345.901 -1.62468 353.495C21.4637 363.044 41.3053 377.527 54.0614 399.594C75.4204 436.543 71.8561 472.738 48.6691 507.55C37.5471 524.249 22.6461 537.245 5.67502 547.767C-32.0949 571.179 -73.0649 584.25 -117.709 583.708C-130.49 583.553 -143.239 580.652 -156.001 579.011L-156 283.617Z" fill="#114FF0"/>
</g>
</g>
<defs>
<clipPath id="clip0_2094_318">
<rect width="702" height="1060" rx="20" fill="white"/>
</clipPath>
<clipPath id="clip1_2094_318">
<rect width="1060" height="1060" fill="white" transform="translate(-156)"/>
</clipPath>
</defs>
</svg>
