<svg width="69" height="69" viewBox="0 0 69 69" fill="none" xmlns="http://www.w3.org/2000/svg">
<rect width="69" height="69" rx="34.5" fill="#EF7E37"/>
<path d="M25.545 44.92C23.9395 44.9138 22.558 44.5187 21.4006 43.7346C20.2493 42.9505 19.3626 41.8148 18.7403 40.3275C18.1242 38.8402 17.8193 37.0511 17.8255 34.9602C17.8255 32.8755 18.1335 31.0989 18.7496 29.6303C19.3719 28.1617 20.2587 27.0446 21.4099 26.2792C22.5674 25.5076 23.9458 25.1218 25.545 25.1218C27.1443 25.1218 28.5196 25.5076 29.6709 26.2792C30.8283 27.0509 31.7182 28.171 32.3405 29.6396C32.9628 31.102 33.2708 32.8755 33.2646 34.9602C33.2646 37.0574 32.9535 38.8496 32.3312 40.3369C31.7151 41.8241 30.8314 42.9598 29.6802 43.7439C28.529 44.528 27.1506 44.92 25.545 44.92ZM25.545 41.569C26.6403 41.569 27.5146 41.0183 28.168 39.9168C28.8214 38.8153 29.145 37.1631 29.1388 34.9602C29.1388 33.5103 28.9894 32.303 28.6907 31.3385C28.3983 30.3739 27.9813 29.6489 27.4399 29.1636C26.9048 28.6782 26.2731 28.4355 25.545 28.4355C24.456 28.4355 23.5848 28.98 22.9314 30.069C22.278 31.158 21.9482 32.7884 21.942 34.9602C21.942 36.4288 22.0882 37.6548 22.3807 38.638C22.6794 39.615 23.0994 40.3493 23.6408 40.8409C24.1822 41.3263 24.817 41.569 25.545 41.569ZM42.9499 44.7614C41.556 44.7614 40.3145 44.5218 39.2255 44.0426C38.1427 43.5572 37.287 42.8914 36.6585 42.045C36.0362 41.1925 35.7157 40.2093 35.6971 39.0954H39.7669C39.7918 39.5621 39.9442 39.9728 40.2243 40.3275C40.5105 40.676 40.8901 40.9467 41.3631 41.1396C41.836 41.3325 42.3681 41.429 42.9592 41.429C43.5753 41.429 44.1198 41.3201 44.5928 41.1023C45.0657 40.8845 45.436 40.5827 45.7036 40.1968C45.9711 39.811 46.1049 39.3661 46.1049 38.862C46.1049 38.3517 45.9618 37.9006 45.6756 37.5085C45.3955 37.1103 44.991 36.7991 44.4621 36.5751C43.9394 36.3511 43.3171 36.239 42.5952 36.239H40.8123V33.2707H42.5952C43.205 33.2707 43.7433 33.1649 44.2101 32.9533C44.683 32.7417 45.0502 32.4493 45.3115 32.0759C45.5729 31.6963 45.7036 31.2545 45.7036 30.7504C45.7036 30.2712 45.5884 29.8512 45.3582 29.4903C45.1342 29.1231 44.8168 28.8369 44.4061 28.6315C44.0016 28.4261 43.5286 28.3235 42.9872 28.3235C42.4396 28.3235 41.9387 28.423 41.4844 28.6222C41.0301 28.8151 40.6661 29.092 40.3923 29.4529C40.1185 29.8139 39.9722 30.237 39.9536 30.7224H36.0798C36.0984 29.6209 36.4127 28.6502 37.0226 27.8101C37.6324 26.97 38.4538 26.3134 39.4868 25.8405C40.5261 25.3613 41.6991 25.1218 43.0059 25.1218C44.3252 25.1218 45.4795 25.3613 46.469 25.8405C47.4584 26.3197 48.227 26.9669 48.7746 27.7821C49.3284 28.591 49.6022 29.4996 49.596 30.5077C49.6022 31.5781 49.2693 32.471 48.5972 33.1867C47.9314 33.9023 47.0633 34.3566 45.9929 34.5495V34.6989C47.3993 34.8793 48.4697 35.3678 49.204 36.1644C49.9445 36.9547 50.3117 37.9441 50.3054 39.1327C50.3117 40.2217 49.9974 41.1894 49.3627 42.0357C48.7341 42.882 47.866 43.5479 46.7583 44.0333C45.6507 44.5187 44.3812 44.7614 42.9499 44.7614Z" fill="white"/>
</svg>
