<svg width="69" height="69" viewBox="0 0 69 69" fill="none" xmlns="http://www.w3.org/2000/svg">
<rect width="69" height="69" rx="34.5" fill="#114FF0"/>
<path d="M26.045 44.92C24.4395 44.9138 23.058 44.5187 21.9006 43.7346C20.7493 42.9505 19.8626 41.8148 19.2403 40.3275C18.6242 38.8402 18.3193 37.0511 18.3255 34.9602C18.3255 32.8755 18.6335 31.0989 19.2496 29.6303C19.8719 28.1617 20.7587 27.0446 21.9099 26.2792C23.0674 25.5076 24.4458 25.1218 26.045 25.1218C27.6443 25.1218 29.0196 25.5076 30.1709 26.2792C31.3283 27.0509 32.2182 28.171 32.8405 29.6396C33.4628 31.102 33.7708 32.8755 33.7646 34.9602C33.7646 37.0574 33.4535 38.8496 32.8312 40.3369C32.2151 41.8241 31.3314 42.9598 30.1802 43.7439C29.029 44.528 27.6506 44.92 26.045 44.92ZM26.045 41.569C27.1403 41.569 28.0146 41.0183 28.668 39.9168C29.3214 38.8153 29.645 37.1631 29.6388 34.9602C29.6388 33.5103 29.4894 32.303 29.1907 31.3385C28.8983 30.3739 28.4813 29.6489 27.9399 29.1636C27.4048 28.6782 26.7731 28.4355 26.045 28.4355C24.956 28.4355 24.0848 28.98 23.4314 30.069C22.778 31.158 22.4482 32.7884 22.442 34.9602C22.442 36.4288 22.5882 37.6548 22.8807 38.638C23.1794 39.615 23.5994 40.3493 24.1408 40.8409C24.6822 41.3263 25.317 41.569 26.045 41.569ZM36.3838 44.5V41.5877L43.1885 35.2869C43.7673 34.7269 44.2527 34.2228 44.6447 33.7748C45.043 33.3267 45.3448 32.888 45.5502 32.4586C45.7555 32.023 45.8582 31.5532 45.8582 31.0491C45.8582 30.489 45.7306 30.0068 45.4755 29.6023C45.2203 29.1916 44.8719 28.8773 44.43 28.6595C43.9882 28.4355 43.4872 28.3235 42.9272 28.3235C42.3422 28.3235 41.8319 28.4417 41.3963 28.6782C40.9607 28.9146 40.6247 29.2538 40.3882 29.6956C40.1517 30.1374 40.0335 30.6633 40.0335 31.2731H36.1971C36.1971 30.0223 36.4802 28.9364 37.0465 28.0154C37.6128 27.0944 38.4062 26.3819 39.4268 25.8778C40.4473 25.3738 41.6235 25.1218 42.9552 25.1218C44.3242 25.1218 45.5159 25.3644 46.5303 25.8498C47.5508 26.329 48.3443 26.9949 48.9105 27.8474C49.4768 28.6999 49.76 29.6769 49.76 30.7784C49.76 31.5003 49.6168 32.2128 49.3306 32.916C49.0506 33.6192 48.5496 34.4002 47.8277 35.2589C47.1059 36.1115 46.0884 37.1351 44.7754 38.33L41.9844 41.0649V41.1956H50.012V44.5H36.3838Z" fill="white"/>
</svg>
