<svg width="69" height="69" viewBox="0 0 69 69" fill="none" xmlns="http://www.w3.org/2000/svg">
<rect width="69" height="69" rx="34.5" fill="#4FA862"/>
<path d="M28.045 44.92C26.4395 44.9138 25.058 44.5187 23.9006 43.7346C22.7493 42.9505 21.8626 41.8148 21.2403 40.3275C20.6242 38.8402 20.3193 37.0511 20.3255 34.9602C20.3255 32.8755 20.6335 31.0989 21.2496 29.6303C21.8719 28.1617 22.7587 27.0446 23.9099 26.2792C25.0674 25.5076 26.4458 25.1218 28.045 25.1218C29.6443 25.1218 31.0196 25.5076 32.1709 26.2792C33.3283 27.0509 34.2182 28.171 34.8405 29.6396C35.4628 31.102 35.7708 32.8755 35.7646 34.9602C35.7646 37.0574 35.4535 38.8496 34.8312 40.3369C34.2151 41.8241 33.3314 42.9598 32.1802 43.7439C31.029 44.528 29.6506 44.92 28.045 44.92ZM28.045 41.569C29.1403 41.569 30.0146 41.0183 30.668 39.9168C31.3214 38.8153 31.645 37.1631 31.6388 34.9602C31.6388 33.5103 31.4894 32.303 31.1907 31.3385C30.8983 30.3739 30.4813 29.6489 29.9399 29.1636C29.4048 28.6782 28.7731 28.4355 28.045 28.4355C26.956 28.4355 26.0848 28.98 25.4314 30.069C24.778 31.158 24.4482 32.7884 24.442 34.9602C24.442 36.4288 24.5882 37.6548 24.8807 38.638C25.1794 39.615 25.5994 40.3493 26.1408 40.8409C26.6822 41.3263 27.317 41.569 28.045 41.569ZM46.7007 25.3831V44.5H42.6589V29.2196H42.5469L38.1691 31.9639V28.3795L42.9016 25.3831H46.7007Z" fill="white"/>
</svg>
