<svg width="69" height="69" viewBox="0 0 69 69" fill="none" xmlns="http://www.w3.org/2000/svg">
<rect width="69" height="69" rx="34.5" fill="#F02160"/>
<path d="M25.545 44.92C23.9395 44.9138 22.558 44.5187 21.4006 43.7346C20.2493 42.9505 19.3626 41.8148 18.7403 40.3275C18.1242 38.8402 17.8193 37.0511 17.8255 34.9602C17.8255 32.8755 18.1335 31.0989 18.7496 29.6303C19.3719 28.1617 20.2587 27.0446 21.4099 26.2792C22.5674 25.5076 23.9458 25.1218 25.545 25.1218C27.1443 25.1218 28.5196 25.5076 29.6709 26.2792C30.8283 27.0509 31.7182 28.171 32.3405 29.6396C32.9628 31.102 33.2708 32.8755 33.2646 34.9602C33.2646 37.0574 32.9535 38.8496 32.3312 40.3369C31.7151 41.8241 30.8314 42.9598 29.6802 43.7439C28.529 44.528 27.1506 44.92 25.545 44.92ZM25.545 41.569C26.6403 41.569 27.5146 41.0183 28.168 39.9168C28.8214 38.8153 29.145 37.1631 29.1388 34.9602C29.1388 33.5103 28.9894 32.303 28.6907 31.3385C28.3983 30.3739 27.9813 29.6489 27.4399 29.1636C26.9048 28.6782 26.2731 28.4355 25.545 28.4355C24.456 28.4355 23.5848 28.98 22.9314 30.069C22.278 31.158 21.9482 32.7884 21.942 34.9602C21.942 36.4288 22.0882 37.6548 22.3807 38.638C22.6794 39.615 23.0994 40.3493 23.6408 40.8409C24.1822 41.3263 24.817 41.569 25.545 41.569ZM35.5944 41.1396V37.9566L43.5753 25.3831H46.3196V29.789H44.6954L39.6642 37.7512V37.9006H51.0055V41.1396H35.5944ZM44.7701 44.5V40.1688L44.8448 38.7593V25.3831H48.6346V44.5H44.7701Z" fill="white"/>
</svg>
